%TF.GenerationSoftware,KiCad,Pcbnew,10.0.3*%
%TF.CreationDate,2026-06-10T07:59:14-03:00*%
%TF.ProjectId,embarcados,656d6261-7263-4616-946f-732e6b696361,rev?*%
%TF.SameCoordinates,Original*%
%TF.FileFunction,Soldermask,Top*%
%TF.FilePolarity,Negative*%
%FSLAX46Y46*%
G04 Gerber Fmt 4.6, Leading zero omitted, Abs format (unit mm)*
G04 Created by KiCad (PCBNEW 10.0.3) date 2026-06-10 07:59:14*
%MOMM*%
%LPD*%
G01*
G04 APERTURE LIST*
G04 Aperture macros list*
%AMRoundRect*
0 Rectangle with rounded corners*
0 $1 Rounding radius*
0 $2 $3 $4 $5 $6 $7 $8 $9 X,Y pos of 4 corners*
0 Add a 4 corners polygon primitive as box body*
4,1,4,$2,$3,$4,$5,$6,$7,$8,$9,$2,$3,0*
0 Add four circle primitives for the rounded corners*
1,1,$1+$1,$2,$3*
1,1,$1+$1,$4,$5*
1,1,$1+$1,$6,$7*
1,1,$1+$1,$8,$9*
0 Add four rect primitives between the rounded corners*
20,1,$1+$1,$2,$3,$4,$5,0*
20,1,$1+$1,$4,$5,$6,$7,0*
20,1,$1+$1,$6,$7,$8,$9,0*
20,1,$1+$1,$8,$9,$2,$3,0*%
%AMFreePoly0*
4,1,17,2.675000,1.605000,1.875000,1.605000,1.875000,0.935000,2.675000,0.935000,2.675000,0.335000,1.875000,0.335000,1.875000,-0.335000,2.675000,-0.335000,2.675000,-0.935000,1.875000,-0.935000,1.875000,-1.605000,2.675000,-1.605000,2.675000,-2.205000,-1.875000,-2.205000,-1.875000,2.205000,2.675000,2.205000,2.675000,1.605000,2.675000,1.605000,$1*%
G04 Aperture macros list end*
%ADD10C,1.400000*%
%ADD11RoundRect,0.250000X-0.400000X-1.075000X0.400000X-1.075000X0.400000X1.075000X-0.400000X1.075000X0*%
%ADD12RoundRect,0.250000X1.100000X-0.412500X1.100000X0.412500X-1.100000X0.412500X-1.100000X-0.412500X0*%
%ADD13RoundRect,0.237500X0.300000X0.237500X-0.300000X0.237500X-0.300000X-0.237500X0.300000X-0.237500X0*%
%ADD14RoundRect,0.250000X-1.050000X-0.550000X1.050000X-0.550000X1.050000X0.550000X-1.050000X0.550000X0*%
%ADD15RoundRect,0.250000X1.050000X0.550000X-1.050000X0.550000X-1.050000X-0.550000X1.050000X-0.550000X0*%
%ADD16RoundRect,0.237500X-0.237500X0.250000X-0.237500X-0.250000X0.237500X-0.250000X0.237500X0.250000X0*%
%ADD17R,1.900000X0.640000*%
%ADD18FreePoly0,270.000000*%
%ADD19RoundRect,0.125000X-0.125000X0.300000X-0.125000X-0.300000X0.125000X-0.300000X0.125000X0.300000X0*%
%ADD20RoundRect,0.250000X-1.075000X0.400000X-1.075000X-0.400000X1.075000X-0.400000X1.075000X0.400000X0*%
%ADD21RoundRect,0.250000X-0.550000X1.050000X-0.550000X-1.050000X0.550000X-1.050000X0.550000X1.050000X0*%
%ADD22RoundRect,0.112500X-0.112500X0.350000X-0.112500X-0.350000X0.112500X-0.350000X0.112500X0.350000X0*%
%ADD23RoundRect,0.237500X0.237500X-0.250000X0.237500X0.250000X-0.237500X0.250000X-0.237500X-0.250000X0*%
%ADD24RoundRect,0.250000X2.050000X0.300000X-2.050000X0.300000X-2.050000X-0.300000X2.050000X-0.300000X0*%
%ADD25RoundRect,0.250002X4.449998X5.149998X-4.449998X5.149998X-4.449998X-5.149998X4.449998X-5.149998X0*%
%ADD26RoundRect,0.237500X0.237500X-0.300000X0.237500X0.300000X-0.237500X0.300000X-0.237500X-0.300000X0*%
%ADD27RoundRect,0.100000X-0.637500X-0.100000X0.637500X-0.100000X0.637500X0.100000X-0.637500X0.100000X0*%
%ADD28RoundRect,0.250000X-2.050000X-0.300000X2.050000X-0.300000X2.050000X0.300000X-2.050000X0.300000X0*%
%ADD29RoundRect,0.250002X-4.449998X-5.149998X4.449998X-5.149998X4.449998X5.149998X-4.449998X5.149998X0*%
%ADD30RoundRect,0.237500X-0.237500X0.300000X-0.237500X-0.300000X0.237500X-0.300000X0.237500X0.300000X0*%
%ADD31RoundRect,0.250000X-1.000000X1.750000X-1.000000X-1.750000X1.000000X-1.750000X1.000000X1.750000X0*%
%ADD32RoundRect,0.237500X-0.300000X-0.237500X0.300000X-0.237500X0.300000X0.237500X-0.300000X0.237500X0*%
%ADD33RoundRect,0.250000X1.750000X1.000000X-1.750000X1.000000X-1.750000X-1.000000X1.750000X-1.000000X0*%
%ADD34RoundRect,0.237500X-0.250000X-0.237500X0.250000X-0.237500X0.250000X0.237500X-0.250000X0.237500X0*%
%ADD35C,1.600000*%
%ADD36RoundRect,0.250000X-0.650000X-0.650000X0.650000X-0.650000X0.650000X0.650000X-0.650000X0.650000X0*%
%ADD37C,1.800000*%
%ADD38RoundRect,0.250001X-1.149999X1.149999X-1.149999X-1.149999X1.149999X-1.149999X1.149999X1.149999X0*%
%ADD39C,2.800000*%
%ADD40RoundRect,0.250000X0.650000X-0.650000X0.650000X0.650000X-0.650000X0.650000X-0.650000X-0.650000X0*%
%ADD41R,1.700000X1.700000*%
%ADD42C,1.700000*%
%ADD43R,1.710000X1.800000*%
%ADD44O,1.710000X1.800000*%
%ADD45R,1.288000X1.288000*%
%ADD46C,1.288000*%
%ADD47R,1.905000X2.000000*%
%ADD48O,1.905000X2.000000*%
%ADD49C,3.000000*%
%ADD50RoundRect,0.250000X0.650000X0.650000X-0.650000X0.650000X-0.650000X-0.650000X0.650000X-0.650000X0*%
%ADD51RoundRect,0.250001X1.149999X-1.149999X1.149999X1.149999X-1.149999X1.149999X-1.149999X-1.149999X0*%
G04 APERTURE END LIST*
D10*
%TO.C,TP1*%
X102910000Y-69720000D03*
X102910000Y-67180000D03*
%TD*%
D11*
%TO.C,R5*%
X96930000Y-70880000D03*
X100030000Y-70880000D03*
%TD*%
D12*
%TO.C,C4*%
X117740000Y-75400000D03*
X117740000Y-72275000D03*
%TD*%
D13*
%TO.C,C9*%
X84912500Y-58500000D03*
X83187500Y-58500000D03*
%TD*%
D14*
%TO.C,C11*%
X82410000Y-51740000D03*
X86010000Y-51740000D03*
%TD*%
D13*
%TO.C,C12*%
X111092500Y-94030000D03*
X109367500Y-94030000D03*
%TD*%
D11*
%TO.C,R9*%
X116440000Y-95045000D03*
X119540000Y-95045000D03*
%TD*%
D15*
%TO.C,C15*%
X80160000Y-108610000D03*
X76560000Y-108610000D03*
%TD*%
D16*
%TO.C,R14*%
X120660000Y-106410000D03*
X120660000Y-108235000D03*
%TD*%
D17*
%TO.C,U2*%
X72000000Y-65380000D03*
X72000000Y-66650000D03*
X72000000Y-67920000D03*
X82740000Y-67920000D03*
X82740000Y-66650000D03*
X82740000Y-65380000D03*
%TD*%
D18*
%TO.C,Q1*%
X104455000Y-49910000D03*
D19*
X106360000Y-46360000D03*
X105090000Y-46360000D03*
X103820000Y-46360000D03*
X102550000Y-46360000D03*
%TD*%
D11*
%TO.C,R4*%
X97000000Y-66360000D03*
X100100000Y-66360000D03*
%TD*%
D20*
%TO.C,R6*%
X72010000Y-59670000D03*
X72010000Y-62770000D03*
%TD*%
D21*
%TO.C,C14*%
X92550000Y-91360000D03*
X92550000Y-94960000D03*
%TD*%
D22*
%TO.C,Q2*%
X69230000Y-59532500D03*
X67930000Y-59532500D03*
X68580000Y-61307500D03*
%TD*%
D23*
%TO.C,R7*%
X66310000Y-61662500D03*
X66310000Y-59837500D03*
%TD*%
D13*
%TO.C,C10*%
X84922500Y-60250000D03*
X83197500Y-60250000D03*
%TD*%
D24*
%TO.C,U4*%
X78855000Y-98295000D03*
X78855000Y-95755000D03*
D25*
X69705000Y-95755000D03*
D24*
X78855000Y-93215000D03*
%TD*%
D26*
%TO.C,C13*%
X96560000Y-94220000D03*
X96560000Y-92495000D03*
%TD*%
D27*
%TO.C,U5*%
X124997500Y-100815000D03*
X124997500Y-101465000D03*
X124997500Y-102115000D03*
X124997500Y-102765000D03*
X124997500Y-103415000D03*
X124997500Y-104065000D03*
X124997500Y-104715000D03*
X124997500Y-105365000D03*
X124997500Y-106015000D03*
X124997500Y-106665000D03*
X130722500Y-106665000D03*
X130722500Y-106015000D03*
X130722500Y-105365000D03*
X130722500Y-104715000D03*
X130722500Y-104065000D03*
X130722500Y-103415000D03*
X130722500Y-102765000D03*
X130722500Y-102115000D03*
X130722500Y-101465000D03*
X130722500Y-100815000D03*
%TD*%
D28*
%TO.C,U1*%
X65135000Y-46375000D03*
D29*
X74285000Y-48915000D03*
D28*
X65135000Y-51455000D03*
%TD*%
D23*
%TO.C,R15*%
X118540000Y-111855000D03*
X118540000Y-110030000D03*
%TD*%
D30*
%TO.C,C17*%
X118560000Y-106460000D03*
X118560000Y-108185000D03*
%TD*%
D31*
%TO.C,C2*%
X89640000Y-77540000D03*
X89640000Y-85540000D03*
%TD*%
%TO.C,C1*%
X77030000Y-77550000D03*
X77030000Y-85550000D03*
%TD*%
D30*
%TO.C,C18*%
X135285000Y-105427500D03*
X135285000Y-107152500D03*
%TD*%
D32*
%TO.C,C16*%
X76917500Y-103540000D03*
X78642500Y-103540000D03*
%TD*%
D33*
%TO.C,C3*%
X108970000Y-101400000D03*
X100970000Y-101400000D03*
%TD*%
D13*
%TO.C,C8*%
X84892500Y-56930000D03*
X83167500Y-56930000D03*
%TD*%
D34*
%TO.C,R2*%
X87097500Y-56990000D03*
X88922500Y-56990000D03*
%TD*%
D12*
%TO.C,C6*%
X126240000Y-75400000D03*
X126240000Y-72275000D03*
%TD*%
%TO.C,C5*%
X121990000Y-75400000D03*
X121990000Y-72275000D03*
%TD*%
D13*
%TO.C,C7*%
X84882500Y-55250000D03*
X83157500Y-55250000D03*
%TD*%
D11*
%TO.C,R8*%
X116440000Y-90835000D03*
X119540000Y-90835000D03*
%TD*%
D35*
%TO.C,R12*%
X126545000Y-86870000D03*
X134165000Y-86870000D03*
%TD*%
D36*
%TO.C,D4*%
X86660000Y-71040000D03*
D37*
X94280000Y-71040000D03*
%TD*%
D38*
%TO.C,J2*%
X140455000Y-81890000D03*
D39*
X140455000Y-86890000D03*
%TD*%
D10*
%TO.C,TP3*%
X118190000Y-103725000D03*
X115650000Y-103725000D03*
%TD*%
D40*
%TO.C,D2*%
X94680000Y-56890000D03*
D37*
X94680000Y-49270000D03*
%TD*%
D41*
%TO.C,J3*%
X138640000Y-106195000D03*
D42*
X138640000Y-103655000D03*
X138640000Y-101115000D03*
%TD*%
D43*
%TO.C,Q3*%
X98460000Y-83705000D03*
D44*
X100740000Y-83705000D03*
X103020000Y-83705000D03*
%TD*%
D35*
%TO.C,R11*%
X134175000Y-90240000D03*
X126555000Y-90240000D03*
%TD*%
D36*
%TO.C,D1*%
X97710000Y-77850000D03*
D37*
X105330000Y-77850000D03*
%TD*%
D45*
%TO.C,PS1*%
X90430000Y-62090000D03*
D46*
X87890000Y-62090000D03*
X85350000Y-62090000D03*
X82810000Y-62090000D03*
%TD*%
D47*
%TO.C,U3*%
X104720000Y-90770000D03*
D48*
X102180000Y-90770000D03*
X99640000Y-90770000D03*
%TD*%
D49*
%TO.C,L1*%
X112440000Y-55040000D03*
X112440000Y-72540000D03*
X140440000Y-55040000D03*
%TD*%
D50*
%TO.C,D3*%
X94280000Y-66440000D03*
D37*
X86660000Y-66440000D03*
%TD*%
D51*
%TO.C,J1*%
X64880000Y-83560000D03*
D39*
X64880000Y-78560000D03*
%TD*%
D35*
%TO.C,R13*%
X109420000Y-91250000D03*
X109420000Y-83630000D03*
%TD*%
D10*
%TO.C,TP4*%
X140820000Y-91740000D03*
X138280000Y-91740000D03*
%TD*%
%TO.C,TP2*%
X110800000Y-44420000D03*
X108260000Y-44420000D03*
%TD*%
D35*
%TO.C,R10*%
X126645000Y-93500000D03*
X134265000Y-93500000D03*
%TD*%
D41*
%TO.C,J4*%
X125375000Y-98120000D03*
D42*
X127915000Y-98120000D03*
%TD*%
M02*
