%TF.GenerationSoftware,KiCad,Pcbnew,10.0.3*%
%TF.CreationDate,2026-06-10T07:59:14-03:00*%
%TF.ProjectId,embarcados,656d6261-7263-4616-946f-732e6b696361,rev?*%
%TF.SameCoordinates,Original*%
%TF.FileFunction,Soldermask,Bot*%
%TF.FilePolarity,Negative*%
%FSLAX46Y46*%
G04 Gerber Fmt 4.6, Leading zero omitted, Abs format (unit mm)*
G04 Created by KiCad (PCBNEW 10.0.3) date 2026-06-10 07:59:14*
%MOMM*%
%LPD*%
G01*
G04 APERTURE LIST*
G04 Aperture macros list*
%AMRoundRect*
0 Rectangle with rounded corners*
0 $1 Rounding radius*
0 $2 $3 $4 $5 $6 $7 $8 $9 X,Y pos of 4 corners*
0 Add a 4 corners polygon primitive as box body*
4,1,4,$2,$3,$4,$5,$6,$7,$8,$9,$2,$3,0*
0 Add four circle primitives for the rounded corners*
1,1,$1+$1,$2,$3*
1,1,$1+$1,$4,$5*
1,1,$1+$1,$6,$7*
1,1,$1+$1,$8,$9*
0 Add four rect primitives between the rounded corners*
20,1,$1+$1,$2,$3,$4,$5,0*
20,1,$1+$1,$4,$5,$6,$7,0*
20,1,$1+$1,$6,$7,$8,$9,0*
20,1,$1+$1,$8,$9,$2,$3,0*%
G04 Aperture macros list end*
%ADD10C,1.400000*%
%ADD11C,1.600000*%
%ADD12RoundRect,0.250000X-0.650000X-0.650000X0.650000X-0.650000X0.650000X0.650000X-0.650000X0.650000X0*%
%ADD13C,1.800000*%
%ADD14RoundRect,0.250001X-1.149999X1.149999X-1.149999X-1.149999X1.149999X-1.149999X1.149999X1.149999X0*%
%ADD15C,2.800000*%
%ADD16RoundRect,0.250000X0.650000X-0.650000X0.650000X0.650000X-0.650000X0.650000X-0.650000X-0.650000X0*%
%ADD17R,1.700000X1.700000*%
%ADD18C,1.700000*%
%ADD19R,1.710000X1.800000*%
%ADD20O,1.710000X1.800000*%
%ADD21R,1.288000X1.288000*%
%ADD22C,1.288000*%
%ADD23R,1.905000X2.000000*%
%ADD24O,1.905000X2.000000*%
%ADD25C,3.000000*%
%ADD26RoundRect,0.250000X0.650000X0.650000X-0.650000X0.650000X-0.650000X-0.650000X0.650000X-0.650000X0*%
%ADD27RoundRect,0.250001X1.149999X-1.149999X1.149999X1.149999X-1.149999X1.149999X-1.149999X-1.149999X0*%
G04 APERTURE END LIST*
D10*
%TO.C,TP1*%
X102910000Y-69720000D03*
X102910000Y-67180000D03*
%TD*%
D11*
%TO.C,R12*%
X126545000Y-86870000D03*
X134165000Y-86870000D03*
%TD*%
D12*
%TO.C,D4*%
X86660000Y-71040000D03*
D13*
X94280000Y-71040000D03*
%TD*%
D14*
%TO.C,J2*%
X140455000Y-81890000D03*
D15*
X140455000Y-86890000D03*
%TD*%
D10*
%TO.C,TP3*%
X118190000Y-103725000D03*
X115650000Y-103725000D03*
%TD*%
D16*
%TO.C,D2*%
X94680000Y-56890000D03*
D13*
X94680000Y-49270000D03*
%TD*%
D17*
%TO.C,J3*%
X138640000Y-106195000D03*
D18*
X138640000Y-103655000D03*
X138640000Y-101115000D03*
%TD*%
D19*
%TO.C,Q3*%
X98460000Y-83705000D03*
D20*
X100740000Y-83705000D03*
X103020000Y-83705000D03*
%TD*%
D11*
%TO.C,R11*%
X134175000Y-90240000D03*
X126555000Y-90240000D03*
%TD*%
D12*
%TO.C,D1*%
X97710000Y-77850000D03*
D13*
X105330000Y-77850000D03*
%TD*%
D21*
%TO.C,PS1*%
X90430000Y-62090000D03*
D22*
X87890000Y-62090000D03*
X85350000Y-62090000D03*
X82810000Y-62090000D03*
%TD*%
D23*
%TO.C,U3*%
X104720000Y-90770000D03*
D24*
X102180000Y-90770000D03*
X99640000Y-90770000D03*
%TD*%
D25*
%TO.C,L1*%
X112440000Y-55040000D03*
X112440000Y-72540000D03*
X140440000Y-55040000D03*
%TD*%
D26*
%TO.C,D3*%
X94280000Y-66440000D03*
D13*
X86660000Y-66440000D03*
%TD*%
D27*
%TO.C,J1*%
X64880000Y-83560000D03*
D15*
X64880000Y-78560000D03*
%TD*%
D11*
%TO.C,R13*%
X109420000Y-91250000D03*
X109420000Y-83630000D03*
%TD*%
D10*
%TO.C,TP4*%
X140820000Y-91740000D03*
X138280000Y-91740000D03*
%TD*%
%TO.C,TP2*%
X110800000Y-44420000D03*
X108260000Y-44420000D03*
%TD*%
D11*
%TO.C,R10*%
X126645000Y-93500000D03*
X134265000Y-93500000D03*
%TD*%
D17*
%TO.C,J4*%
X125375000Y-98120000D03*
D18*
X127915000Y-98120000D03*
%TD*%
M02*
