M48
; DRILL file KiCad 10.0.3 date 2026-06-10T07:59:18
; FORMAT={-:-/ absolute / metric / decimal}
; #@! TF.CreationDate,2026-06-10T07:59:18-03:00
; #@! TF.GenerationSoftware,Kicad,Pcbnew,10.0.3
; #@! TF.FileFunction,Plated,1,2,PTH
FMAT,2
METRIC
; #@! TA.AperFunction,Plated,PTH,ComponentDrill
T1C0.700
; #@! TA.AperFunction,Plated,PTH,ComponentDrill
T2C0.780
; #@! TA.AperFunction,Plated,PTH,ComponentDrill
T3C0.800
; #@! TA.AperFunction,Plated,PTH,ComponentDrill
T4C0.900
; #@! TA.AperFunction,Plated,PTH,ViaDrill
T5C1.000
; #@! TA.AperFunction,Plated,PTH,ComponentDrill
T6C1.000
; #@! TA.AperFunction,Plated,PTH,ComponentDrill
T7C1.100
; #@! TA.AperFunction,Plated,PTH,ComponentDrill
T8C1.300
; #@! TA.AperFunction,Plated,PTH,ViaDrill
T9C2.000
%
G90
G05
T1
X102.91Y-67.18
X102.91Y-69.72
X108.26Y-44.42
X110.8Y-44.42
X115.65Y-103.725
X118.19Y-103.725
X138.28Y-91.74
X140.82Y-91.74
T2
X82.81Y-62.09
X85.35Y-62.09
X87.89Y-62.09
X90.43Y-62.09
T3
X109.42Y-83.63
X109.42Y-91.25
X126.545Y-86.87
X126.555Y-90.24
X126.645Y-93.5
X134.165Y-86.87
X134.175Y-90.24
X134.265Y-93.5
T4
X86.66Y-66.44
X86.66Y-71.04
X94.28Y-66.44
X94.28Y-71.04
X94.68Y-49.27
X94.68Y-56.89
X97.71Y-77.85
X105.33Y-77.85
T5
X58.96Y-64.52
X66.11Y-71.83
X71.56Y-112.91
X71.56Y-117.73
X84.28Y-91.16
X84.28Y-96.48
X87.72Y-111.93
X87.72Y-117.44
X88.92Y-107.33
X92.36Y-103.4
X97.6Y-59.92
X102.23Y-59.87
X105.63Y-66.04
X105.78Y-58.07
X119.795Y-98.86
X122.43Y-103.525
X133.205Y-106.49
X133.235Y-111.49
T6
X98.46Y-83.705
X100.74Y-83.705
X103.02Y-83.705
X125.375Y-98.12
X127.915Y-98.12
X138.64Y-101.115
X138.64Y-103.655
X138.64Y-106.195
T7
X99.64Y-90.77
X102.18Y-90.77
X104.72Y-90.77
X112.44Y-55.04
X112.44Y-72.54
X140.44Y-55.04
T8
X64.88Y-78.56
X64.88Y-83.56
X140.455Y-81.89
X140.455Y-86.89
T9
X52.95Y-39.95
X52.95Y-119.85
X147.4Y-39.95
X147.4Y-119.85
M30
