%TF.GenerationSoftware,KiCad,Pcbnew,10.0.3*%
%TF.CreationDate,2026-06-16T14:52:25-03:00*%
%TF.ProjectId,Nivel sem contato,4e697665-6c20-4736-956d-20636f6e7461,rev?*%
%TF.SameCoordinates,Original*%
%TF.FileFunction,Legend,Top*%
%TF.FilePolarity,Positive*%
%FSLAX46Y46*%
G04 Gerber Fmt 4.6, Leading zero omitted, Abs format (unit mm)*
G04 Created by KiCad (PCBNEW 10.0.3) date 2026-06-16 14:52:25*
%MOMM*%
%LPD*%
G01*
G04 APERTURE LIST*
%ADD10C,0.150000*%
%ADD11C,0.120000*%
G04 APERTURE END LIST*
D10*
X134274819Y-47433333D02*
X134989104Y-47433333D01*
X134989104Y-47433333D02*
X135131961Y-47480952D01*
X135131961Y-47480952D02*
X135227200Y-47576190D01*
X135227200Y-47576190D02*
X135274819Y-47719047D01*
X135274819Y-47719047D02*
X135274819Y-47814285D01*
X135274819Y-46433333D02*
X135274819Y-47004761D01*
X135274819Y-46719047D02*
X134274819Y-46719047D01*
X134274819Y-46719047D02*
X134417676Y-46814285D01*
X134417676Y-46814285D02*
X134512914Y-46909523D01*
X134512914Y-46909523D02*
X134560533Y-47004761D01*
X118404819Y-55080594D02*
X117404819Y-55080594D01*
X117404819Y-55080594D02*
X117404819Y-54842499D01*
X117404819Y-54842499D02*
X117452438Y-54699642D01*
X117452438Y-54699642D02*
X117547676Y-54604404D01*
X117547676Y-54604404D02*
X117642914Y-54556785D01*
X117642914Y-54556785D02*
X117833390Y-54509166D01*
X117833390Y-54509166D02*
X117976247Y-54509166D01*
X117976247Y-54509166D02*
X118166723Y-54556785D01*
X118166723Y-54556785D02*
X118261961Y-54604404D01*
X118261961Y-54604404D02*
X118357200Y-54699642D01*
X118357200Y-54699642D02*
X118404819Y-54842499D01*
X118404819Y-54842499D02*
X118404819Y-55080594D01*
X118404819Y-53556785D02*
X118404819Y-54128213D01*
X118404819Y-53842499D02*
X117404819Y-53842499D01*
X117404819Y-53842499D02*
X117547676Y-53937737D01*
X117547676Y-53937737D02*
X117642914Y-54032975D01*
X117642914Y-54032975D02*
X117690533Y-54128213D01*
X123238095Y-63154819D02*
X123238095Y-63964342D01*
X123238095Y-63964342D02*
X123285714Y-64059580D01*
X123285714Y-64059580D02*
X123333333Y-64107200D01*
X123333333Y-64107200D02*
X123428571Y-64154819D01*
X123428571Y-64154819D02*
X123619047Y-64154819D01*
X123619047Y-64154819D02*
X123714285Y-64107200D01*
X123714285Y-64107200D02*
X123761904Y-64059580D01*
X123761904Y-64059580D02*
X123809523Y-63964342D01*
X123809523Y-63964342D02*
X123809523Y-63154819D01*
X124809523Y-64154819D02*
X124238095Y-64154819D01*
X124523809Y-64154819D02*
X124523809Y-63154819D01*
X124523809Y-63154819D02*
X124428571Y-63297676D01*
X124428571Y-63297676D02*
X124333333Y-63392914D01*
X124333333Y-63392914D02*
X124238095Y-63440533D01*
X131854819Y-64831904D02*
X131854819Y-64260476D01*
X132854819Y-64546190D02*
X131854819Y-64546190D01*
X132854819Y-63927142D02*
X131854819Y-63927142D01*
X131854819Y-63927142D02*
X131854819Y-63546190D01*
X131854819Y-63546190D02*
X131902438Y-63450952D01*
X131902438Y-63450952D02*
X131950057Y-63403333D01*
X131950057Y-63403333D02*
X132045295Y-63355714D01*
X132045295Y-63355714D02*
X132188152Y-63355714D01*
X132188152Y-63355714D02*
X132283390Y-63403333D01*
X132283390Y-63403333D02*
X132331009Y-63450952D01*
X132331009Y-63450952D02*
X132378628Y-63546190D01*
X132378628Y-63546190D02*
X132378628Y-63927142D01*
X131950057Y-62974761D02*
X131902438Y-62927142D01*
X131902438Y-62927142D02*
X131854819Y-62831904D01*
X131854819Y-62831904D02*
X131854819Y-62593809D01*
X131854819Y-62593809D02*
X131902438Y-62498571D01*
X131902438Y-62498571D02*
X131950057Y-62450952D01*
X131950057Y-62450952D02*
X132045295Y-62403333D01*
X132045295Y-62403333D02*
X132140533Y-62403333D01*
X132140533Y-62403333D02*
X132283390Y-62450952D01*
X132283390Y-62450952D02*
X132854819Y-63022380D01*
X132854819Y-63022380D02*
X132854819Y-62403333D01*
X117454819Y-64561904D02*
X117454819Y-63990476D01*
X118454819Y-64276190D02*
X117454819Y-64276190D01*
X118454819Y-63657142D02*
X117454819Y-63657142D01*
X117454819Y-63657142D02*
X117454819Y-63276190D01*
X117454819Y-63276190D02*
X117502438Y-63180952D01*
X117502438Y-63180952D02*
X117550057Y-63133333D01*
X117550057Y-63133333D02*
X117645295Y-63085714D01*
X117645295Y-63085714D02*
X117788152Y-63085714D01*
X117788152Y-63085714D02*
X117883390Y-63133333D01*
X117883390Y-63133333D02*
X117931009Y-63180952D01*
X117931009Y-63180952D02*
X117978628Y-63276190D01*
X117978628Y-63276190D02*
X117978628Y-63657142D01*
X118454819Y-62133333D02*
X118454819Y-62704761D01*
X118454819Y-62419047D02*
X117454819Y-62419047D01*
X117454819Y-62419047D02*
X117597676Y-62514285D01*
X117597676Y-62514285D02*
X117692914Y-62609523D01*
X117692914Y-62609523D02*
X117740533Y-62704761D01*
X132904819Y-59266666D02*
X132428628Y-59599999D01*
X132904819Y-59838094D02*
X131904819Y-59838094D01*
X131904819Y-59838094D02*
X131904819Y-59457142D01*
X131904819Y-59457142D02*
X131952438Y-59361904D01*
X131952438Y-59361904D02*
X132000057Y-59314285D01*
X132000057Y-59314285D02*
X132095295Y-59266666D01*
X132095295Y-59266666D02*
X132238152Y-59266666D01*
X132238152Y-59266666D02*
X132333390Y-59314285D01*
X132333390Y-59314285D02*
X132381009Y-59361904D01*
X132381009Y-59361904D02*
X132428628Y-59457142D01*
X132428628Y-59457142D02*
X132428628Y-59838094D01*
X131904819Y-58933332D02*
X131904819Y-58314285D01*
X131904819Y-58314285D02*
X132285771Y-58647618D01*
X132285771Y-58647618D02*
X132285771Y-58504761D01*
X132285771Y-58504761D02*
X132333390Y-58409523D01*
X132333390Y-58409523D02*
X132381009Y-58361904D01*
X132381009Y-58361904D02*
X132476247Y-58314285D01*
X132476247Y-58314285D02*
X132714342Y-58314285D01*
X132714342Y-58314285D02*
X132809580Y-58361904D01*
X132809580Y-58361904D02*
X132857200Y-58409523D01*
X132857200Y-58409523D02*
X132904819Y-58504761D01*
X132904819Y-58504761D02*
X132904819Y-58790475D01*
X132904819Y-58790475D02*
X132857200Y-58885713D01*
X132857200Y-58885713D02*
X132809580Y-58933332D01*
X132904819Y-55266666D02*
X132428628Y-55599999D01*
X132904819Y-55838094D02*
X131904819Y-55838094D01*
X131904819Y-55838094D02*
X131904819Y-55457142D01*
X131904819Y-55457142D02*
X131952438Y-55361904D01*
X131952438Y-55361904D02*
X132000057Y-55314285D01*
X132000057Y-55314285D02*
X132095295Y-55266666D01*
X132095295Y-55266666D02*
X132238152Y-55266666D01*
X132238152Y-55266666D02*
X132333390Y-55314285D01*
X132333390Y-55314285D02*
X132381009Y-55361904D01*
X132381009Y-55361904D02*
X132428628Y-55457142D01*
X132428628Y-55457142D02*
X132428628Y-55838094D01*
X132000057Y-54885713D02*
X131952438Y-54838094D01*
X131952438Y-54838094D02*
X131904819Y-54742856D01*
X131904819Y-54742856D02*
X131904819Y-54504761D01*
X131904819Y-54504761D02*
X131952438Y-54409523D01*
X131952438Y-54409523D02*
X132000057Y-54361904D01*
X132000057Y-54361904D02*
X132095295Y-54314285D01*
X132095295Y-54314285D02*
X132190533Y-54314285D01*
X132190533Y-54314285D02*
X132333390Y-54361904D01*
X132333390Y-54361904D02*
X132904819Y-54933332D01*
X132904819Y-54933332D02*
X132904819Y-54314285D01*
X115104819Y-58296666D02*
X114628628Y-58629999D01*
X115104819Y-58868094D02*
X114104819Y-58868094D01*
X114104819Y-58868094D02*
X114104819Y-58487142D01*
X114104819Y-58487142D02*
X114152438Y-58391904D01*
X114152438Y-58391904D02*
X114200057Y-58344285D01*
X114200057Y-58344285D02*
X114295295Y-58296666D01*
X114295295Y-58296666D02*
X114438152Y-58296666D01*
X114438152Y-58296666D02*
X114533390Y-58344285D01*
X114533390Y-58344285D02*
X114581009Y-58391904D01*
X114581009Y-58391904D02*
X114628628Y-58487142D01*
X114628628Y-58487142D02*
X114628628Y-58868094D01*
X115104819Y-57344285D02*
X115104819Y-57915713D01*
X115104819Y-57629999D02*
X114104819Y-57629999D01*
X114104819Y-57629999D02*
X114247676Y-57725237D01*
X114247676Y-57725237D02*
X114342914Y-57820475D01*
X114342914Y-57820475D02*
X114390533Y-57915713D01*
%TO.C,J1*%
D11*
X133820000Y-45720000D02*
X133820000Y-47100000D01*
X132440000Y-45720000D02*
X133820000Y-45720000D01*
X131170000Y-45720000D02*
X118360000Y-45720000D01*
X131170000Y-45720000D02*
X131170000Y-48480000D01*
X118360000Y-45720000D02*
X118360000Y-48480000D01*
X131170000Y-48480000D02*
X118360000Y-48480000D01*
%TO.C,D1*%
X117260000Y-52657500D02*
X115340000Y-52657500D01*
X115340000Y-52657500D02*
X115340000Y-55342500D01*
X117260000Y-55342500D02*
X117260000Y-52657500D01*
%TO.C,U1*%
X126310000Y-62885000D02*
X121690000Y-62885000D01*
X121690000Y-56115000D02*
X126310000Y-56115000D01*
X127860000Y-62430000D02*
X128190000Y-62190000D01*
X128190000Y-62670000D01*
X127860000Y-62430000D01*
G36*
X128190000Y-62670000D02*
G01*
X127860000Y-62430000D01*
X128190000Y-62190000D01*
X128190000Y-62670000D01*
G37*
%TO.C,TP2*%
X129800000Y-65570000D02*
X131600000Y-65570000D01*
X129800000Y-65570000D02*
X129800000Y-61270000D01*
X131600000Y-61270000D02*
X131600000Y-65570000D01*
X131600000Y-61270000D02*
X129800000Y-61270000D01*
%TO.C,TP1*%
X115400000Y-65300000D02*
X117200000Y-65300000D01*
X115400000Y-65300000D02*
X115400000Y-61000000D01*
X117200000Y-61000000D02*
X117200000Y-65300000D01*
X117200000Y-61000000D02*
X115400000Y-61000000D01*
%TO.C,R3*%
X131535000Y-58872936D02*
X131535000Y-59327064D01*
X130065000Y-58872936D02*
X130065000Y-59327064D01*
%TO.C,R2*%
X131535000Y-54872936D02*
X131535000Y-55327064D01*
X130065000Y-54872936D02*
X130065000Y-55327064D01*
%TO.C,R1*%
X115565000Y-58357064D02*
X115565000Y-57902936D01*
X117035000Y-58357064D02*
X117035000Y-57902936D01*
%TD*%
M02*
